<?plantuml 1.2026.2?><svg xmlns="http://www.w3.org/2000/svg" xmlns:xlink="http://www.w3.org/1999/xlink" contentStyleType="text/css" data-diagram-type="STATE" height="691px" preserveAspectRatio="none" style="width:799px;height:691px;background:#FFFFFF;" version="1.1" viewBox="0 0 799 691" width="799px" zoomAndPan="magnify"><title>PhotographerDelivery State Machine</title><defs/><g><g class="title" data-source-line="3"><text fill="#000000" font-family="sans-serif" font-size="14" font-weight="bold" lengthAdjust="spacing" textLength="262.1924" x="261.8637" y="23.5352">PhotographerDelivery State Machine</text></g><g class="start_entity" data-qualified-name=".start." data-source-line="5" id="ent0002"><ellipse cx="705.52" cy="430.7283" fill="#222222" rx="10" ry="10" style="stroke:#222222;stroke-width:1;"/></g><rect fill="#F1F1F1" height="40" rx="12.5" ry="12.5" style="stroke:#181818;stroke-width:0.5;" width="81.9414" x="601.55" y="528.0383"/><text fill="#000000" font-family="sans-serif" font-size="14" lengthAdjust="spacing" textLength="71.9414" x="606.55" y="553.3293">Registered</text><rect fill="#F1F1F1" height="40" rx="12.5" ry="12.5" style="stroke:#181818;stroke-width:0.5;" width="89.6797" x="425.68" y="51.4483"/><text fill="#000000" font-family="sans-serif" font-size="14" lengthAdjust="spacing" textLength="79.6797" x="430.68" y="76.7393">Discovering</text><rect fill="#F1F1F1" height="40" rx="12.5" ry="12.5" style="stroke:#181818;stroke-width:0.5;" width="84.8262" x="174.11" y="176.4183"/><text fill="#000000" font-family="sans-serif" font-size="14" lengthAdjust="spacing" textLength="74.8262" x="179.11" y="201.7093">Discovered</text><rect fill="#F1F1F1" height="40" rx="12.5" ry="12.5" style="stroke:#181818;stroke-width:0.5;" width="50" x="445.52" y="410.7283"/><text fill="#000000" font-family="sans-serif" font-size="14" lengthAdjust="spacing" textLength="39.9424" x="450.5488" y="436.0193">Failed</text><rect fill="#F1F1F1" height="40" rx="12.5" ry="12.5" style="stroke:#181818;stroke-width:0.5;" width="76.9443" x="178.05" y="293.4183"/><text fill="#000000" font-family="sans-serif" font-size="14" lengthAdjust="spacing" textLength="66.9443" x="183.05" y="318.7093">Importing</text><rect fill="#F1F1F1" height="40" rx="12.5" ry="12.5" style="stroke:#181818;stroke-width:0.5;" width="72.0908" x="19.48" y="410.7283"/><text fill="#000000" font-family="sans-serif" font-size="14" lengthAdjust="spacing" textLength="62.0908" x="24.48" y="436.0193">Imported</text><rect fill="#F1F1F1" height="40" rx="12.5" ry="12.5" style="stroke:#181818;stroke-width:0.5;" width="97.042" x="7" y="528.0383"/><text fill="#000000" font-family="sans-serif" font-size="14" lengthAdjust="spacing" textLength="87.042" x="12" y="553.3293">ReviewReady</text><rect fill="#F1F1F1" height="40" rx="12.5" ry="12.5" style="stroke:#181818;stroke-width:0.5;" width="69.1514" x="20.95" y="645.0383"/><text fill="#000000" font-family="sans-serif" font-size="14" lengthAdjust="spacing" textLength="59.1514" x="25.95" y="670.3293">Archived</text><g class="entity" data-qualified-name="GMN2" data-source-line="21" id="ent0003"><path d="M550.12,43.4883 L550.12,67.4483 L515.67,71.4483 L550.12,75.4483 L550.12,99.4199 A0,0 0 0 0 550.12,99.4199 L792.9198,99.4199 A0,0 0 0 0 792.9198,99.4199 L792.9198,53.4883 L782.9198,43.4883 L550.12,43.4883 A0,0 0 0 0 550.12,43.4883" fill="#FEFFDD" style="stroke:#181818;stroke-width:0.5;"/><path d="M782.9198,43.4883 L782.9198,53.4883 L792.9198,53.4883 L782.9198,43.4883" fill="#FEFFDD" style="stroke:#181818;stroke-width:0.5;"/><text fill="#000000" font-family="sans-serif" font-size="13" lengthAdjust="spacing" textLength="182.1396" x="556.12" y="61.0566">Source is an ingest reference</text><text fill="#000000" font-family="sans-serif" font-size="13" lengthAdjust="spacing" textLength="209.6948" x="556.12" y="76.3672">(e.g., Google Photos shared link).</text><text fill="#000000" font-family="sans-serif" font-size="13" lengthAdjust="spacing" textLength="221.7998" x="556.12" y="91.6777">It is not the canonical runtime URL.</text></g><g class="entity" data-qualified-name="GMN5" data-source-line="27" id="ent0006"><path d="M126.23,410.4183 L126.23,426.7283 L91.71,430.7283 L126.23,434.7283 L126.23,451.0394 A0,0 0 0 0 126.23,451.0394 L410.8164,451.0394 A0,0 0 0 0 410.8164,451.0394 L410.8164,420.4183 L400.8164,410.4183 L126.23,410.4183 A0,0 0 0 0 126.23,410.4183" fill="#FEFFDD" style="stroke:#181818;stroke-width:0.5;"/><path d="M400.8164,410.4183 L400.8164,420.4183 L410.8164,420.4183 L400.8164,410.4183" fill="#FEFFDD" style="stroke:#181818;stroke-width:0.5;"/><text fill="#000000" font-family="sans-serif" font-size="13" lengthAdjust="spacing" textLength="263.5864" x="132.23" y="427.9866">Canonical runtime image URLs are hosted</text><text fill="#000000" font-family="sans-serif" font-size="13" lengthAdjust="spacing" textLength="237.2563" x="132.23" y="443.2972">on the AfricaStage/OTW ImageServer.</text></g><!--link *start* to Registered--><g class="link" data-entity-1="ent0002" data-entity-2="ent0003" data-link-type="dependency" data-source-line="5" id="lnk4"><path d="M700.99,440.0183 C691.06,458.1983 670.0283,496.7037 656.0483,522.2737" fill="none" id="*start*-to-Registered" style="stroke:#181818;stroke-width:1;"/><polygon fill="#181818" points="653.17,527.5383,660.9971,521.5603,655.5686,523.1512,653.9778,517.7226,653.17,527.5383" style="stroke:#181818;stroke-width:1;"/></g><!--link Registered to Discovering--><g class="link" data-entity-1="ent0003" data-entity-2="ent0005" data-link-type="dependency" data-source-line="7" id="lnk6"><path d="M642.52,527.8583 C642.52,504.9783 642.52,465.5583 642.52,431.7283 C642.52,195.4183 642.52,195.4183 642.52,195.4183 C642.52,163.2983 567.5062,120.3322 516.6362,94.6522" fill="none" id="Registered-to-Discovering" style="stroke:#181818;stroke-width:1;"/><polygon fill="#181818" points="511.28,91.9483,517.5117,99.5749,515.7435,94.2015,521.1169,92.4333,511.28,91.9483" style="stroke:#181818;stroke-width:1;"/><text fill="#000000" font-family="sans-serif" font-size="13" lengthAdjust="spacing" textLength="98.1538" x="643.52" y="318.4866">startDiscovery()</text></g><!--link Discovering to Discovered--><g class="link" data-entity-1="ent0005" data-entity-2="ent0007" data-link-type="dependency" data-source-line="8" id="lnk8"><path d="M425.31,75.8283 C358.79,81.8283 239.59,96.9383 213.52,129.4183 C203.18,142.2983 203.8365,155.781 207.7765,170.181" fill="none" id="Discovering-to-Discovered" style="stroke:#181818;stroke-width:1;"/><polygon fill="#181818" points="209.36,175.9683,210.843,166.2317,208.0404,171.1455,203.1266,168.343,209.36,175.9683" style="stroke:#181818;stroke-width:1;"/><text fill="#000000" font-family="sans-serif" font-size="13" lengthAdjust="spacing" textLength="229.8423" x="214.52" y="142.9866">discoverySucceeded(sourceManifest)</text></g><!--link Discovering to Failed--><g class="link" data-entity-1="ent0005" data-entity-2="ent0009" data-link-type="dependency" data-source-line="9" id="lnk10"><path d="M469.9,91.6983 C468.87,126.1383 466.95,200.5883 467.52,263.4183 C468,316.5483 469.2009,373.2199 469.9209,404.2699" fill="none" id="Discovering-to-Failed" style="stroke:#181818;stroke-width:1;"/><polygon fill="#181818" points="470.06,410.2683,473.8503,401.178,469.9441,405.2696,465.8524,401.3634,470.06,410.2683" style="stroke:#181818;stroke-width:1;"/><text fill="#000000" font-family="sans-serif" font-size="13" lengthAdjust="spacing" textLength="147.2593" x="468.52" y="259.9866">discoveryFailed(reason)</text></g><!--link Discovered to Importing--><g class="link" data-entity-1="ent0007" data-entity-2="ent0011" data-link-type="dependency" data-source-line="11" id="lnk12"><path d="M216.52,216.6683 C216.52,237.8983 216.52,265.8483 216.52,287.1083" fill="none" id="Discovered-to-Importing" style="stroke:#181818;stroke-width:1;"/><polygon fill="#181818" points="216.52,293.1083,220.52,284.1083,216.52,288.1083,212.52,284.1083,216.52,293.1083" style="stroke:#181818;stroke-width:1;"/><text fill="#000000" font-family="sans-serif" font-size="13" lengthAdjust="spacing" textLength="79.5361" x="217.52" y="259.9866">startImport()</text></g><!--link Importing to Imported--><g class="link" data-entity-1="ent0011" data-entity-2="ent0013" data-link-type="dependency" data-source-line="12" id="lnk14"><path d="M177.7,313.7883 C138.96,315.4983 81.19,324.9283 52.52,363.4183 C42.61,376.7283 43.2613,390.2389 47.0713,404.5989" fill="none" id="Importing-to-Imported" style="stroke:#181818;stroke-width:1;"/><polygon fill="#181818" points="48.61,410.3983,50.1682,400.6735,47.3278,405.5655,42.4357,402.725,48.61,410.3983" style="stroke:#181818;stroke-width:1;"/><text fill="#000000" font-family="sans-serif" font-size="13" lengthAdjust="spacing" textLength="218.0547" x="53.52" y="376.9866">importSucceeded(importSummary)</text></g><!--link Importing to Failed--><g class="link" data-entity-1="ent0011" data-entity-2="ent0009" data-link-type="dependency" data-source-line="13" id="lnk15"><path d="M239.58,333.7183 C258.21,348.4283 285.65,368.1683 312.52,380.4183 C360.98,402.5083 378.35,392.5583 428.52,410.4183 C433.96,412.3583 434.1964,412.2707 439.5864,414.6907" fill="none" id="Importing-to-Failed" style="stroke:#181818;stroke-width:1;"/><polygon fill="#181818" points="445.06,417.1483,438.4879,409.8129,440.4987,415.1003,435.2112,417.111,445.06,417.1483" style="stroke:#181818;stroke-width:1;"/><text fill="#000000" font-family="sans-serif" font-size="13" lengthAdjust="spacing" textLength="130.2095" x="313.52" y="376.9866">importFailed(reason)</text></g><!--link Imported to ReviewReady--><g class="link" data-entity-1="ent0013" data-entity-2="ent0016" data-link-type="dependency" data-source-line="15" id="lnk17"><path d="M55.52,451.0283 C55.52,472.3183 55.52,500.3683 55.52,521.6783" fill="none" id="Imported-to-ReviewReady" style="stroke:#181818;stroke-width:1;"/><polygon fill="#181818" points="55.52,527.6783,59.52,518.6783,55.52,522.6783,51.52,518.6783,55.52,527.6783" style="stroke:#181818;stroke-width:1;"/><text fill="#000000" font-family="sans-serif" font-size="13" lengthAdjust="spacing" textLength="149.6523" x="56.52" y="494.6066">createInitialReviewRun()</text></g><!--link ReviewReady to Archived--><g class="link" data-entity-1="ent0016" data-entity-2="ent0018" data-link-type="dependency" data-source-line="16" id="lnk19"><path d="M55.52,568.2883 C55.52,589.5183 55.52,617.4783 55.52,638.7283" fill="none" id="ReviewReady-to-Archived" style="stroke:#181818;stroke-width:1;"/><polygon fill="#181818" points="55.52,644.7283,59.52,635.7283,55.52,639.7283,51.52,635.7283,55.52,644.7283" style="stroke:#181818;stroke-width:1;"/><text fill="#000000" font-family="sans-serif" font-size="13" lengthAdjust="spacing" textLength="103.9873" x="56.52" y="611.6066">archiveDelivery()</text></g><!--link Failed to Registered--><g class="link" data-entity-1="ent0009" data-entity-2="ent0003" data-link-type="dependency" data-source-line="18" id="lnk20"><path d="M483.36,450.9883 C493.83,465.4883 509.76,485.0383 527.52,498.0383 C549.76,514.3183 572.5832,524.4982 595.6332,532.6482" fill="none" id="Failed-to-Registered" style="stroke:#181818;stroke-width:1;"/><polygon fill="#181818" points="601.29,534.6483,594.1382,527.8769,596.576,532.9815,591.4714,535.4193,601.29,534.6483" style="stroke:#181818;stroke-width:1;"/><text fill="#000000" font-family="sans-serif" font-size="13" lengthAdjust="spacing" textLength="87.8643" x="528.52" y="494.6066">retryAfterFix()</text></g><?plantuml-src PPAnRi9038RtUmgFK1MwCrH2HLH8HQr8gmvLXzF5IQmcTv7FqERjwoG40cm--__iFtOAIX6mggM15ADZgeM2DqP8IeIt8aZ8sTO5yWfBEY0ta8WLXArr1Naqvklk6sQpHzXXJb6GCJNc77Ub5KKNb2MVmmAYM9OXrKocPbmUovLUG3e8axrpY2ccanZsx71hFMKOvPPVMoelsJupORGn-AanemajiAdgm39oroVKshbordMjgGlFdePtLLbkhhcJeLvrxURKjb_ZWV1tXpPj570g4jnu4hBbiRJtQcmiQx4bwpaEtH3RXyEzL6oE1YxFf596uMQPwNDDVwtG1pqjKru8X6nyDvDqImUAO3reGZUlUAQDl4CpmNa-luVd4FBXjuaG2zkEASd_JETc8osi0q0A16TzyEHi2RptGXN2n-vbRj2dhGIldGmhCayt75KsxsXrnWX5YAqk-6xCCcCLwn-RuyFh-wVsqIX1reyQ3Vi7?></g></svg>